<svg height="456pt" viewBox="0 -12 456 456" width="456pt" xmlns="http://www.w3.org/2000/svg"><path d="m448 160h-48v-104c0-13.253906-10.746094-24-24-24h-40v-4c0-15.464844-12.535156-28-28-28s-28 12.535156-28 28v4h-160v-4c0-15.464844-12.535156-28-28-28s-28 12.535156-28 28v4h-40c-13.253906 0-24 10.746094-24 24v328c0 4.417969 3.582031 8 8 8h288v32c0 4.417969 3.582031 8 8 8h144c4.417969 0 8-3.582031 8-8v-32c0-.054688 0-.105469 0-.167969-.078125-35.414062-13.246094-69.546875-36.976562-95.832031 23.730468-26.285156 36.898437-60.417969 36.976562-95.832031 0-.0625 0-.113281 0-.167969v-32c0-4.417969-3.582031-8-8-8zm-8 32h-128v-16h128zm-144-164c0-6.628906 5.371094-12 12-12s12 5.371094 12 12v40c0 6.628906-5.371094 12-12 12s-12-5.371094-12-12zm-16 20v16h-160v-16zm-200-20c0-6.628906 5.371094-12 12-12s12 5.371094 12 12v40c0 6.628906-5.371094 12-12 12s-12-5.371094-12-12zm-64 28c0-4.417969 3.582031-8 8-8h40v20c-.027344 13.082031 9.027344 24.433594 21.789062 27.3125 12.761719 2.878906 25.8125-3.484375 31.402344-15.3125h165.601563c5.582031 11.847656 18.640625 18.226562 31.417969 15.347656 12.773437-2.882812 21.832031-14.25 21.789062-27.347656v-20h40c4.417969 0 8 3.582031 8 8v56h-368zm0 320v-248h368v32h-80c-4.417969 0-8 3.582031-8 8v32 .167969c.078125 35.414062 13.246094 69.546875 36.976562 95.832031-20.050781 22.25-32.617187 50.230469-35.929687 80zm424 40h-128v-16h128zm-37.65625-114.34375c22.050781 21.980469 35.296875 51.269531 37.242188 82.34375h-127.203126c1.945313-31.074219 15.191407-60.363281 37.242188-82.34375 3.121094-3.125 3.121094-8.1875 0-11.3125-22.039062-21.984375-35.273438-51.273438-37.210938-82.34375h127.203126c-1.945313 31.074219-15.191407 60.363281-37.242188 82.34375-3.121094 3.125-3.121094 8.1875 0 11.3125zm0 0"/><path d="m336 240h16v16h-16zm0 0"/><path d="m368 248h16v16h-16zm0 0"/><path d="m352 272h16v16h-16zm0 0"/><path d="m392 232h16v16h-16zm0 0"/><path d="m392 264h16v16h-16zm0 0"/><path d="m368 296h16v16h-16zm0 0"/><path d="m352 360h16v16h-16zm0 0"/><path d="m408 360h16v16h-16zm0 0"/><path d="m328 360h16v16h-16zm0 0"/><path d="m368 336h16v16h-16zm0 0"/><path d="m384 360h16v16h-16zm0 0"/><path d="m191.777344 185.785156c-.0625-1.296875-.195313-2.589844-.394532-3.875-.183593-1.054687-.445312-2.078125-.71875-3.101562-.320312-1.253906-.703124-2.484375-1.152343-3.695313-.382813-.992187-.839844-1.929687-1.304688-2.882812-.558593-1.125-1.128906-2.238281-1.800781-3.308594-.597656-.953125-1.269531-1.832031-1.957031-2.722656-.480469-.632813-.855469-1.328125-1.386719-1.933594-.277344-.320313-.628906-.554687-.917969-.867187-.753906-.796876-1.601562-1.511719-2.402343-2.230469-.929688-.855469-1.910157-1.65625-2.933594-2.398438-.800782-.578125-1.671875-1.066406-2.527344-1.601562-1.128906-.699219-2.292969-1.332031-3.488281-1.894531-.9375-.425782-1.921875-.746094-2.898438-1.089844-1.199219-.445313-2.421875-.824219-3.664062-1.136719-1.105469-.242187-2.222657-.425781-3.351563-.550781-.855468-.121094-1.671875-.359375-2.542968-.417969-.398438 0-.800782.050781-1.207032 0-.410156-.046875-.738281-.078125-1.128906-.078125-.742188 0-1.441406.175781-2.175781.214844-1.3125.0625-2.621094.195312-3.921875.402344-1.054688.183593-2.0625.445312-3.085938.71875-1.25.3125-2.480468.695312-3.6875 1.144531-1 .390625-1.953125.847656-2.914062 1.328125-1.128906.53125-2.226563 1.128906-3.285156 1.785156-.953126.597656-1.832032 1.261719-2.722657 1.949219-.640625.488281-1.335937.863281-1.941406 1.394531-.328125.285156-.5625.636719-.882813.933594-.796874.738281-1.480468 1.535156-2.199218 2.34375-.867188.945312-1.683594 1.9375-2.449219 2.96875-.574219.800781-1.046875 1.648437-1.550781 2.496094-.707032 1.132812-1.34375 2.308593-1.910156 3.519531-.425782.929687-.738282 1.90625-1.082032 2.871093-.453125 1.207032-.835937 2.441407-1.152344 3.691407-.253906 1.078125-.382812 2.191406-.542968 3.300781-.121094.867188-.359375 1.707031-.425782 2.585938 0 .414062.058594.800781 0 1.230468-.054687.433594-.070312.738282-.070312 1.121094 0 .742188.175781 1.433594.214844 2.167969.0625 1.320312.195312 2.636719.402344 3.945312.183593 1.039063.4375 2.03125.710937 3.039063.320313 1.273437.710937 2.527344 1.167969 3.757812.375.96875.800781 1.890625 1.28125 2.816406.546875 1.164063 1.160156 2.292969 1.839844 3.386719.574218.910157 1.214843 1.757813 1.871093 2.613281.503907.664063.894531 1.386719 1.449219 2.015626.285156.335937.65625.578124.957031.898437.714844.800781 1.488281 1.4375 2.273438 2.136719.964843.886718 1.976562 1.722656 3.03125 2.503906.800781.558594 1.601562 1.023438 2.449219 1.519531 1.148437.710938 2.335937 1.359375 3.558593 1.933594.921875.417969 1.890625.730469 2.855469 1.074219 1.210938.449218 2.441406.832031 3.691406 1.152344 1.085938.253906 2.214844.390624 3.34375.542968.855469.121094 1.671875.359375 2.542969.417969.871094.054687 1.597656.070313 2.335937.078125h.289063c1.628906-.007812 3.253906-.125 4.871094-.34375v-.097656c6.898437-.941406 13.371093-3.886719 18.617187-8.46875 3.695313-3.242188 6.691406-7.207032 8.796875-11.648438.21875-.457031.296875-.953125.496094-1.417968.769531-1.753907 1.394531-3.566407 1.875-5.421876.230469-.960937.324219-1.945312.476563-2.921874.175781-1.113282.472656-2.191407.546874-3.328126 0-.429687-.050781-.847656 0-1.273437.046876-.421875.054688-.710937.054688-1.078125 0-.761719-.175781-1.472656-.222656-2.214844zm-32.976563 22.015625c-.257812 0-.519531 0-.800781.054688-.886719.085937-1.78125.113281-2.671875.082031-.679687-.035156-1.355469-.105469-2.023437-.210938-.648438-.085937-1.289063-.167968-1.914063-.3125-.683594-.167968-1.355469-.375-2.015625-.621093-.542969-.191407-1.09375-.378907-1.597656-.609375-.671875-.316406-1.328125-.671875-1.960938-1.0625-.464844-.28125-.9375-.546875-1.375-.855469-.582031-.433594-1.140625-.894531-1.671875-1.386719-.433593-.382812-.875-.800781-1.273437-1.191406-.398438-.390625-.910156-1.0625-1.335938-1.597656-.425781-.539063-.71875-.953125-1.039062-1.449219-.378906-.617187-.722656-1.25-1.03125-1.90625-.25-.503906-.496094-1.007813-.699219-1.535156-.257813-.691407-.480469-1.394531-.664063-2.109375-.140624-.554688-.285156-1.105469-.382812-1.675782-.113281-.722656-.1875-1.457031-.222656-2.191406 0-.605468-.082032-1.222656-.058594-1.839844.027344-.613281.121094-1.398437.210938-2.085937.085937-.6875.167968-1.257813.3125-1.863281.167968-.683594.375-1.359375.621093-2.019532.191407-.550781.378907-1.101562.617188-1.597656.3125-.664062.664062-1.3125 1.046875-1.9375.28125-.472656.554687-.949218.871094-1.398437.429687-.574219.886718-1.128907 1.371093-1.65625.390625-.441407.796875-.878907 1.199219-1.289063.5625-.515625 1.152344-.996094 1.765625-1.445312.371094-.28125.738281-.578125 1.128906-.800782.707031-.449218 1.441407-.851562 2.199219-1.199218.371094-.179688.722656-.378906 1.097656-.53125.871094-.339844 1.769532-.621094 2.679688-.839844.320312-.070312.625-.191406.945312-.253906 1.269532-.28125 2.566406-.4375 3.871094-.464844.890625.027344 1.777344.121094 2.65625.273438.648438.085937 1.296875.167968 1.929688.3125.671874.167968 1.339843.378906 1.988281.621093.554687.191407 1.113281.378907 1.601562.617188.660157.3125 1.300781.660156 1.921875 1.039062.476563.289063.964844.5625 1.414063.878907.554687.425781 1.089843.875 1.601562 1.355468.445313.390625.902344.796875 1.320313 1.230469.414062.433594.878906 1.03125 1.292968 1.601563.417969.566406.746094.980468 1.074219 1.503906.367188.589844.703125 1.199218 1 1.832031.261719.535156.519531 1.0625.726563 1.597656.25.667969.464844 1.351563.640625 2.039063.152343.578125.304687 1.152344.398437 1.746094.109375.699218.183594 1.402343.21875 2.113281.050782.625.066406 1.257812.054688 1.886719-.035156.820312-.125 1.636718-.265625 2.449218-.085938.574219-.140625 1.160156-.277344 1.726563-.265625 1.003906-.609375 1.988281-1.023437 2.945312-2.660157 6.507813-8.59375 11.105469-15.5625 12.054688zm0 0"/><path d="m272 240h-56c-4.417969 0-8 3.582031-8 8v56c0 4.417969 3.582031 8 8 8h56c4.417969 0 8-3.582031 8-8v-56c0-4.417969-3.582031-8-8-8zm-39.3125 36-8.6875 8.6875v-17.375zm2.625-20h17.375l-8.6875 8.6875zm8.6875 31.3125 8.6875 8.6875h-17.375zm11.3125-11.3125 8.6875-8.6875v17.375zm0 0"/><path d="m65.648438 311.921875c.800781.054687 1.597656.078125 2.398437.078125 19.707031 0 35.773437-15.796875 36.101563-35.5.328124-19.703125-15.199219-36.03125-34.894532-36.6875-19.695312-.65625-36.277344 14.601562-37.261718 34.28125-.984376 19.679688 13.992187 36.515625 33.65625 37.828125zm-10.832032-50.960937c3.640625-3.210938 8.332032-4.976563 13.183594-4.960938.449219 0 .894531.015625 1.34375.046875 8.070312.535156 15.023438 5.875 17.625 13.53125 2.597656 7.660156.328125 16.128906-5.753906 21.460937-6.082032 5.328126-14.773438 6.46875-22.023438 2.894532-7.253906-3.578125-11.636718-11.167969-11.113281-19.238282.324219-5.292968 2.75-10.238281 6.738281-13.734374zm0 0"/><path d="m158.351562 240.078125c-12.929687-1.007813-25.402343 5.011719-32.652343 15.765625s-8.15625 24.574219-2.375 36.183594c5.785156 11.605468 17.363281 19.207031 30.316406 19.894531.800781.054687 1.597656.078125 2.398437.078125 19.398438-.054688 35.261719-15.464844 35.882813-34.851562.617187-19.386719-14.234375-35.777344-33.585937-37.070313zm10.832032 50.960937c-6.683594 5.859376-16.433594 6.605469-23.929688 1.828126-7.5-4.777344-10.941406-13.929688-8.453125-22.464844s10.308594-14.402344 19.199219-14.402344c.4375 0 .886719.015625 1.34375.046875 8.070312.535156 15.023438 5.875 17.625 13.53125 2.597656 7.660156.328125 16.128906-5.753906 21.460937zm0 0"/><path d="m241.648438 223.921875c.800781.054687 1.597656.078125 2.398437.078125 19.707031 0 35.773437-15.796875 36.101563-35.5.328124-19.703125-15.199219-36.03125-34.894532-36.6875-19.695312-.65625-36.277344 14.601562-37.261718 34.28125-.984376 19.679688 13.992187 36.515625 33.65625 37.828125zm-10.832032-50.960937c3.640625-3.210938 8.332032-4.976563 13.183594-4.960938.449219 0 .894531.015625 1.34375.046875 9.519531.628906 17.273438 7.898437 18.511719 17.355469 1.242187 9.460937-4.375 18.480468-13.410157 21.542968-9.039062 3.0625-18.980468-.683593-23.746093-8.949218s-3.027344-18.75 4.148437-25.035156zm0 0"/><path d="m65.648438 223.921875c.800781.054687 1.597656.078125 2.398437.078125 19.707031 0 35.773437-15.796875 36.101563-35.5.328124-19.703125-15.199219-36.03125-34.894532-36.6875-19.695312-.65625-36.277344 14.601562-37.261718 34.28125-.984376 19.679688 13.992187 36.515625 33.65625 37.828125zm-10.832032-50.960937c3.640625-3.210938 8.332032-4.976563 13.183594-4.960938.449219 0 .894531.015625 1.34375.046875 9.519531.628906 17.273438 7.898437 18.511719 17.355469 1.242187 9.460937-4.375 18.480468-13.410157 21.542968-9.039062 3.0625-18.980468-.683593-23.746093-8.949218s-3.027344-18.75 4.148437-25.035156zm0 0"/><path d="m32 344h152v16h-152zm0 0"/><path d="m200 344h16v16h-16zm0 0"/><path d="m232 344h16v16h-16zm0 0"/><path d="m264 344h16v16h-16zm0 0"/></svg>