<?xml version="1.0" encoding="iso-8859-1"?>
<!-- Generator: Adobe Illustrator 17.1.0, SVG Export Plug-In . SVG Version: 6.00 Build 0)  -->
<!DOCTYPE svg PUBLIC "-//W3C//DTD SVG 1.1//EN" "http://www.w3.org/Graphics/SVG/1.1/DTD/svg11.dtd">
<svg version="1.1" id="Capa_1" xmlns="http://www.w3.org/2000/svg" xmlns:xlink="http://www.w3.org/1999/xlink" x="0px" y="0px"
	 viewBox="0 0 243.785 243.785" style="enable-background:new 0 0 243.785 243.785;" xml:space="preserve">
<path d="M99.041,58.145v21.054c0,4.136-3.365,7.5-7.5,7.5H7.5c-4.136,0-7.5-3.364-7.5-7.5V58.145c0-4.136,3.364-7.5,7.5-7.5h84.041
	C95.677,50.645,99.041,54.009,99.041,58.145z M34.521,137.752c4.136,0,7.5-3.364,7.5-7.5v-21.054c0-4.136-3.364-7.5-7.5-7.5H8
	c-4.136,0-7.5,3.364-7.5,7.5v21.054c0,4.136,3.364,7.5,7.5,7.5H34.521z M91.541,152.752H7.5c-4.136,0-7.5,3.364-7.5,7.5v21.054
	c0,4.136,3.364,7.5,7.5,7.5h84.041c4.135,0,7.5-3.364,7.5-7.5v-21.054C99.041,156.116,95.677,152.752,91.541,152.752z
	 M121.541,152.752c-4.135,0-7.5,3.364-7.5,7.5v21.054c0,4.136,3.365,7.5,7.5,7.5h84.042c4.136,0,7.5-3.364,7.5-7.5v-21.054
	c0-4.136-3.364-7.5-7.5-7.5H121.541z M148.562,239.858c4.135,0,7.5-3.364,7.5-7.5v-21.053c0-4.136-3.365-7.5-7.5-7.5H64.521
	c-4.135,0-7.5,3.364-7.5,7.5v21.053c0,4.136,3.365,7.5,7.5,7.5H148.562z M34.521,239.858c4.136,0,7.5-3.364,7.5-7.5v-21.053
	c0-4.136-3.364-7.5-7.5-7.5H8c-4.136,0-7.5,3.364-7.5,7.5v21.053c0,4.136,3.364,7.5,7.5,7.5H34.521z M205.083,203.806h-26.521
	c-4.136,0-7.5,3.364-7.5,7.5v21.053c0,4.136,3.364,7.5,7.5,7.5h26.521c4.136,0,7.5-3.364,7.5-7.5v-21.053
	C212.583,207.17,209.218,203.806,205.083,203.806z M243.785,63.177c0,22.53-12.642,42.159-31.203,52.176v14.899
	c0,4.136-3.364,7.5-7.5,7.5h-26.521c-4.136,0-7.5-3.364-7.5-7.5v-9.389c-5.307-1.239-10.345-3.182-15-5.744v15.133
	c0,4.136-3.365,7.5-7.5,7.5H64.521c-4.135,0-7.5-3.364-7.5-7.5v-21.054c0-4.136,3.365-7.5,7.5-7.5h75.051
	c-3.839-4.475-7.026-9.521-9.406-15h-8.625c-4.135,0-7.5-3.364-7.5-7.5V58.145c0-4.136,3.365-7.5,7.5-7.5h5.09
	c5.767-26.67,29.533-46.718,57.904-46.718C217.206,3.927,243.785,30.506,243.785,63.177z M216.199,40.714
	c-3.214-2.615-7.938-2.129-10.551,1.086l-25.371,31.189l-18.223-13.435c-3.334-2.457-8.029-1.748-10.487,1.587
	c-2.458,3.334-1.748,8.029,1.586,10.487l23.979,17.678c1.337,0.985,2.897,1.463,4.446,1.463c2.184,0,4.345-0.95,5.823-2.768
	l29.883-36.737C219.898,48.052,219.412,43.328,216.199,40.714z"/>
<g>
</g>
<g>
</g>
<g>
</g>
<g>
</g>
<g>
</g>
<g>
</g>
<g>
</g>
<g>
</g>
<g>
</g>
<g>
</g>
<g>
</g>
<g>
</g>
<g>
</g>
<g>
</g>
<g>
</g>
</svg>
