<?xml version="1.0" encoding="iso-8859-1"?>
<!-- Generator: Adobe Illustrator 17.1.0, SVG Export Plug-In . SVG Version: 6.00 Build 0)  -->
<!DOCTYPE svg PUBLIC "-//W3C//DTD SVG 1.1//EN" "http://www.w3.org/Graphics/SVG/1.1/DTD/svg11.dtd">
<svg version="1.1" id="Capa_1" xmlns="http://www.w3.org/2000/svg" xmlns:xlink="http://www.w3.org/1999/xlink" x="0px" y="0px"
	 viewBox="0 0 200.032 200.032" style="enable-background:new 0 0 200.032 200.032;" xml:space="preserve">
<path style="fill:#000001;" d="M136.295,1.593c-14.869,0-28.153,8-35.125,20.768H35.523c-1.736,0-3.419,0.603-4.761,1.705
	l-6.596,5.418c-1.734,1.425-2.739,3.551-2.739,5.795v14.783c0,1.751,0.613,3.448,1.733,4.795l2.835,3.41
	c1.425,1.714,3.538,2.705,5.767,2.705H43.14c0.009,0,0.018,0.002,0.027,0.002c0.729,0,1.466-0.112,2.189-0.334
	c0.007-0.002,0.015-0.004,0.022-0.006c0.192-0.06,0.382-0.133,0.572-0.209c0.044-0.018,0.09-0.033,0.135-0.052
	c0.041-0.017,0.083-0.029,0.124-0.047l12.944-5.751l11.907,5.669c2.033,0.969,4.394,0.972,6.427,0.01l10.711-5.06l12.194,4.28
	c6.729,13.637,20.461,22.266,35.903,22.266c22.097,0,40.073-17.977,40.073-40.074S158.392,1.593,136.295,1.593z M148.746,51.366
	c-5.349,0-9.7-4.351-9.7-9.7s4.352-9.7,9.7-9.7s9.699,4.351,9.699,9.7S154.095,51.366,148.746,51.366z M200.032,148.69v49.749
	h-1.523h-57.618c0-9.392-7.614-17.006-17.006-17.006H92.632c-3.965,0-7.857-1.071-11.263-3.1l-75.49-44.744
	c-5.859-3.489-7.651-11.144-3.951-16.872c0.046-0.071,0.092-0.143,0.138-0.214c3.359-5.201,10.117-7.004,15.621-4.169l62.684,33.226
	c5.41,2.787,11.407,4.241,17.493,4.241h27.313c2.332,0,4.203-1.977,4.027-4.347c-0.124-1.672-1.357-3.059-2.947-3.589
	l-32.558-10.853c-4.716-1.572-7.793-6.21-7.279-11.283c0.561-5.54,5.484-9.621,11.052-9.621h0c6.932,0,13.848,0.67,20.651,2.001
	l61.731,12.074C191.575,126.477,200.032,136.747,200.032,148.69z"/>
<g>
</g>
<g>
</g>
<g>
</g>
<g>
</g>
<g>
</g>
<g>
</g>
<g>
</g>
<g>
</g>
<g>
</g>
<g>
</g>
<g>
</g>
<g>
</g>
<g>
</g>
<g>
</g>
<g>
</g>
</svg>
