<svg height="682pt" viewBox="-60 -21 682 682.66669" width="682pt" xmlns="http://www.w3.org/2000/svg"><path d="m279 452.5c-34.871094 0-66.753906-10.503906-93.75-28.5v216l93.75-70.5 93.75 70.5v-216c-26.996094 17.996094-58.875 28.5-93.75 28.5zm0 0"/><path d="m260.25 374.125c-21.753906-7.5-37.5-28.5-37.5-52.875h37.5c0 10.5 8.246094 18.75 18.75 18.75s18.75-8.25 18.75-18.75c0-10.503906-8.246094-18.75-18.75-18.75-31.128906 0-56.25-25.125-56.25-56.25 0-24.375 15.746094-45.375 37.5-52.875v-39.375c-63.375 9-112.5 63.75-112.5 129.75s49.125 120.746094 112.5 129.75zm0 0"/><path d="m500.25 341.875 20.625 85.875-77.621094 16.5-26.25 82.875-6.753906-2.25v-135.375c23.628906-28.875 37.5-65.625 37.5-105.75 0-93.003906-75.75-168.75-168.75-168.75-92.996094 0-168.75 75.746094-168.75 168.75 0 40.125 13.878906 76.875 37.5 105.75v133.125l-10.125 2.625-18.75-77.25-85.125-27 24.753906-76.875-60.753906-64.125 60-54.375-20.625-85.875 77.621094-16.503906 27.003906-84.746094 76.875 24.75 60.375-63.25 58.125 62.5 85.875-20.625 16.5 77.621094 84.75 27.003906-24.75 76.875 60.75 64.125zm0 0"/><path d="m297.75 154v39.375c21.753906 7.5 37.5 28.5 37.5 52.875h-37.5c0-10.503906-8.246094-18.75-18.75-18.75s-18.75 8.246094-18.75 18.75c0 10.5 8.246094 18.75 18.75 18.75 31.128906 0 56.25 25.121094 56.25 56.25 0 24.375-15.746094 45.375-37.5 52.875v39.375c62.835938-8.976562 112.5-63.617188 112.5-129.75 0-66-49.125-120.75-112.5-129.75zm0 0"/></svg>