<?xml version="1.0" encoding="iso-8859-1"?>
<!-- Generator: Adobe Illustrator 19.0.0, SVG Export Plug-In . SVG Version: 6.00 Build 0)  -->
<svg version="1.1" id="Capa_1" xmlns="http://www.w3.org/2000/svg" xmlns:xlink="http://www.w3.org/1999/xlink" x="0px" y="0px"
	 viewBox="0 0 512 512" style="enable-background:new 0 0 512 512;" xml:space="preserve">
<g>
	<g>
		<path d="M480,272v80H352v-64h-32v64H32v-80h256v-32H176v-80h112v-32h-32V32h48V0H48C21.49,0,0,21.49,0,48v416
			c0,26.51,21.49,48,48,48h416c26.51,0,48-21.49,48-48V272H480z M32,48c0-8.837,7.163-16,16-16h176v96H32V48z M32,160h112v80H32V160
			z M208,480H48c-8.837,0-16-7.163-16-16v-80h176V480z M480,464c0,8.837-7.163,16-16,16H240v-96h240V464z"/>
	</g>
</g>
<g>
	<g>
		<path d="M496,80h-16V48c0-17.673-14.327-32-32-32h-64c-17.673,0-32,14.327-32,32v32h-16c-8.837,0-16,7.163-16,16v128
			c0,8.837,7.163,16,16,16h160c8.837,0,16-7.163,16-16V96C512,87.163,504.837,80,496,80z M384,48h64v32h-64V48z M480,208H352v-96
			h128V208z"/>
	</g>
</g>
<g>
	<g>
		<rect x="400" y="144" width="32" height="32"/>
	</g>
</g>
<g>
</g>
<g>
</g>
<g>
</g>
<g>
</g>
<g>
</g>
<g>
</g>
<g>
</g>
<g>
</g>
<g>
</g>
<g>
</g>
<g>
</g>
<g>
</g>
<g>
</g>
<g>
</g>
<g>
</g>
</svg>
